HIERARCHY
ROOT Hips
{
	OFFSET -0.001795 -0.223333 0.028219
	CHANNELS 6 Xposition Yposition Zposition Zrotation Yrotation Xrotation 
	JOINT LeftUpLeg
	{
		OFFSET 0.069520 -0.091406 -0.006815
		CHANNELS 3 Zrotation Yrotation Xrotation
		JOINT LeftLeg
		{
			OFFSET 0.034277 -0.375199 -0.004496
			CHANNELS 3 Zrotation Yrotation Xrotation
			JOINT LeftFoot
			{
				OFFSET -0.013596 -0.397961 -0.043693
				CHANNELS 3 Zrotation Yrotation Xrotation
				JOINT LeftToe
				{
					OFFSET 0.026358 -0.055791 0.119288
					CHANNELS 3 Zrotation Yrotation Xrotation
					End Site
					{
						OFFSET 0.000000 0.000000 0.000000
					}
				}
			}
		}
	}
	JOINT RightUpLeg
	{
		OFFSET -0.067670 -0.090522 -0.004320
		CHANNELS 3 Zrotation Yrotation Xrotation
		JOINT RightLeg
		{
			OFFSET -0.038290 -0.382569 -0.008850
			CHANNELS 3 Zrotation Yrotation Xrotation
			JOINT RightFoot
			{
				OFFSET 0.015774 -0.398415 -0.042312
				CHANNELS 3 Zrotation Yrotation Xrotation
				JOINT RightToe
				{
					OFFSET -0.025372 -0.048144 0.123348
					CHANNELS 3 Zrotation Yrotation Xrotation
					End Site
					{
						OFFSET 0.000000 0.000000 0.000000
					}
				}
			}
		}
	}
	JOINT Spine
	{
		OFFSET -0.002533 0.108963 -0.026696
		CHANNELS 3 Zrotation Yrotation Xrotation
		JOINT Spine1
		{
			OFFSET 0.005487 0.135180 0.001092
			CHANNELS 3 Zrotation Yrotation Xrotation
			JOINT Spine2
			{
				OFFSET 0.001457 0.052922 0.025425
				CHANNELS 3 Zrotation Yrotation Xrotation
				JOINT Neck
				{
					OFFSET -0.002778 0.213870 -0.042857
					CHANNELS 3 Zrotation Yrotation Xrotation
					JOINT Head
					{
						OFFSET 0.005152 0.064970 0.051349
						CHANNELS 3 Zrotation Yrotation Xrotation
						End Site
						{
							OFFSET 0.000000 0.000000 0.000000
						}
					}
				}
				JOINT LeftShoulder
				{
					OFFSET 0.078845 0.121749 -0.034090
					CHANNELS 3 Zrotation Yrotation Xrotation
					JOINT LeftArm
					{
						OFFSET 0.090977 0.030469 -0.008868
						CHANNELS 3 Zrotation Yrotation Xrotation
						JOINT LeftForeArm
						{
							OFFSET 0.259612 -0.012772 -0.027456
							CHANNELS 3 Zrotation Yrotation Xrotation
							JOINT LeftHand
							{
								OFFSET 0.249234 0.008986 -0.001171
								CHANNELS 3 Zrotation Yrotation Xrotation
								End Site
								{
									OFFSET 0.000000 0.000000 0.000000
								}
							}
						}
					}
				}
				JOINT RightShoulder
				{
					OFFSET -0.081759 0.118833 -0.038615
					CHANNELS 3 Zrotation Yrotation Xrotation
					JOINT RightArm
					{
						OFFSET -0.096012 0.032551 -0.009143
						CHANNELS 3 Zrotation Yrotation Xrotation
						JOINT RightForeArm
						{
							OFFSET -0.253742 -0.013329 -0.021401
							CHANNELS 3 Zrotation Yrotation Xrotation
							JOINT RightHand
							{
								OFFSET -0.255298 0.007772 -0.005559
								CHANNELS 3 Zrotation Yrotation Xrotation
								End Site
								{
									OFFSET 0.000000 0.000000 0.000000
								}
							}
						}
					}
				}
			}
		}
	}
}
MOTION
Frames: 15
Frame Time: 0.050000
0.000000 0.934494 0.000000 -1.781276 3.616338 0.274035 0.906326 -0.184228 -2.054492 -4.021425 0.391648 5.427729 6.268830 13.639068 3.983430 0.000000 0.000000 0.000000 -2.317529 1.243302 -15.817718 6.230152 -1.894888 35.834453 -8.309288 -20.229745 5.010751 0.000000 0.000000 0.000000 -3.481710 -0.258349 17.093486 5.779520 -0.933793 -21.148083 -1.655336 -1.757825 29.948388 0.478874 1.142152 -23.449997 0.000000 0.000000 0.000000 -30.983311 -2.779750 -0.134796 -54.284462 -3.893788 -7.532223 1.784311 -52.801548 2.988695 0.000000 0.000000 0.000000 25.763923 6.644679 3.009903 60.596100 2.853488 -7.534133 -8.782642 43.550716 -0.375821 0.000000 0.000000 0.000000 
0.003292 0.935085 0.011379 -2.497430 3.466590 1.210960 1.758094 -0.126731 -1.210531 -4.443405 0.453990 3.399277 6.232028 13.566215 3.976978 0.000000 0.000000 0.000000 -1.513266 1.652474 -19.727011 6.508518 -1.996077 35.849080 -9.200367 -21.909707 7.098119 0.000000 0.000000 0.000000 -3.935834 -0.182189 17.207315 7.243407 -1.340694 -21.058888 -1.950599 -2.947292 30.229873 -0.348816 1.437043 -23.601595 0.000000 0.000000 0.000000 -31.103414 -1.981176 -0.090408 -54.448415 -5.736396 -6.949359 2.062614 -53.654574 3.262574 0.000000 0.000000 0.000000 25.420673 8.081696 3.420458 60.811922 1.529585 -8.120766 -8.922297 45.477558 -0.653575 0.000000 0.000000 0.000000 
0.005932 0.935458 0.023752 -2.650995 2.747859 1.612103 1.659443 -0.122007 -1.169127 -4.333245 0.449518 4.109878 6.591930 14.237554 4.106658 0.000000 0.000000 0.000000 -0.888677 2.055194 -23.075759 6.251205 -1.674166 34.105424 -8.590004 -20.699118 7.990333 0.000000 0.000000 0.000000 -3.846889 -0.192696 18.213958 6.248135 -1.208572 -19.472873 -1.149926 -3.363637 29.024201 -0.917053 1.557303 -20.925017 0.000000 0.000000 0.000000 -30.248326 -2.350447 0.500483 -55.648505 -7.004071 -6.418861 4.668256 -53.393890 2.082062 0.000000 0.000000 0.000000 24.085274 7.993077 2.987859 62.185355 0.478225 -8.623361 -8.006753 46.106879 -0.474870 0.000000 0.000000 0.000000 
0.007904 0.936590 0.037572 -2.656113 2.554382 1.843776 1.432011 -0.082754 -0.686744 -4.087020 0.417655 4.438739 6.628030 14.371110 4.554243 0.000000 0.000000 0.000000 0.227817 2.455957 -25.091190 5.814304 -1.278874 28.853102 -7.961045 -19.474543 8.395159 0.000000 0.000000 0.000000 -3.802399 -0.228495 20.119343 7.000642 -1.321705 -20.667291 -1.871667 -4.480617 30.318735 -1.566599 1.780787 -21.715279 0.000000 0.000000 0.000000 -30.857194 -2.224244 1.009989 -55.928360 -7.596503 -6.480620 4.880063 -55.268745 2.477128 0.000000 0.000000 0.000000 24.936476 8.916997 3.165885 61.701241 -0.412286 -9.103574 -9.356170 47.925142 -1.175752 0.000000 0.000000 0.000000 
0.009433 0.937316 0.053180 -2.476730 2.508358 2.905114 0.792123 -0.085275 -0.821481 -3.396310 0.320239 4.428254 6.633315 14.459821 5.055461 0.000000 0.000000 0.000000 1.638709 2.900837 -26.641401 5.825103 -1.039549 20.563685 -6.954411 -17.611081 11.075555 0.000000 0.000000 0.000000 -3.487597 -0.314881 21.879158 8.035117 -1.669460 -19.880115 -2.531508 -4.576606 28.723220 -1.835604 1.969755 -22.401063 0.000000 0.000000 0.000000 -29.782493 -2.428616 1.122113 -57.436550 -7.031382 -6.608641 4.316364 -57.625527 2.891445 0.000000 0.000000 0.000000 24.752308 8.946930 3.052438 62.703746 -1.372277 -9.519402 -11.753215 49.237828 -2.361586 0.000000 0.000000 0.000000 
0.010449 0.935816 0.070965 -1.888448 3.220921 3.941289 0.077893 -0.139101 -1.568586 -3.082187 0.251859 5.757004 6.424312 14.069811 4.851493 0.000000 0.000000 0.000000 2.281653 3.075085 -27.485318 5.123613 -0.771035 15.525872 -6.149887 -16.189696 13.711083 0.000000 0.000000 0.000000 -2.383809 -0.652674 24.246644 7.150285 -1.224368 -21.739465 -2.795437 -5.643311 29.139741 -2.596146 2.332864 -23.202366 0.000000 0.000000 0.000000 -30.522733 -2.892778 1.735049 -56.815963 -7.234554 -6.628544 2.723520 -59.469418 4.063152 0.000000 0.000000 0.000000 25.000382 8.720654 2.705760 63.704955 -2.681962 -10.412624 -13.269667 51.575019 -3.229313 0.000000 0.000000 0.000000 
0.011027 0.931541 0.091608 -1.335362 4.247689 4.222114 -0.352214 -0.201948 -2.329007 -3.002750 0.175174 8.942695 6.295523 13.667775 3.862993 0.000000 0.000000 0.000000 2.903482 3.108061 -27.205336 3.741432 -0.451541 14.493354 -6.144162 -16.064011 14.161103 0.000000 0.000000 0.000000 -1.085947 -1.120353 26.300175 7.278712 -1.298090 -20.951197 -3.431944 -6.113705 27.812040 -2.543565 2.302457 -22.492420 0.000000 0.000000 0.000000 -30.791353 -3.639743 2.129593 -56.895649 -7.913636 -6.146425 1.018837 -59.261057 4.845841 0.000000 0.000000 0.000000 24.909706 8.975989 2.843647 65.148688 -3.159006 -10.761242 -15.189562 53.079566 -4.284297 0.000000 0.000000 0.000000 
0.010990 0.925232 0.114415 -1.502735 5.053093 4.961834 0.763959 -0.487121 -5.578952 -4.498817 0.346031 16.388311 6.536536 13.801149 2.124663 0.000000 0.000000 0.000000 3.301012 3.370448 -29.403362 3.643776 -0.494939 18.133495 -6.845783 -17.191446 13.071894 0.000000 0.000000 0.000000 0.031233 -1.588086 28.032577 7.825531 -1.378623 -21.379498 -3.046898 -6.112339 27.281231 -3.421863 2.909872 -22.067420 0.000000 0.000000 0.000000 -32.483530 -3.316822 1.716389 -56.191260 -7.199410 -6.392247 -2.630343 -61.331235 7.117391 0.000000 0.000000 0.000000 24.768675 9.461279 3.285863 63.433974 -2.437805 -10.064546 -15.409829 52.767532 -4.369146 0.000000 0.000000 0.000000 
0.010072 0.914874 0.138805 -1.525425 5.595350 5.207084 2.394456 -0.936035 -11.742495 -7.152814 0.989847 29.847619 6.419905 13.992721 3.769398 0.000000 0.000000 0.000000 3.388135 3.532844 -31.208526 3.982593 -0.730548 23.608419 -7.627902 -18.609845 9.128063 0.000000 0.000000 0.000000 0.565147 -1.922936 29.792963 8.699739 -1.668499 -20.626141 -2.261919 -4.057978 26.113055 -3.809000 3.524061 -21.951059 0.000000 0.000000 0.000000 -34.715368 -5.079913 1.847167 -54.867075 -6.804850 -6.078219 -3.453065 -62.299575 7.072036 0.000000 0.000000 0.000000 23.988025 9.686176 4.173831 62.526122 -2.246671 -9.804483 -14.235967 52.869254 -3.520597 0.000000 0.000000 0.000000 
0.008722 0.902876 0.164383 -1.706757 5.501542 4.406355 4.213151 -1.316897 -19.098753 -9.954243 2.406186 46.269532 6.547313 15.304412 10.584559 0.000000 0.000000 0.000000 3.647660 3.685033 -31.885802 4.689237 -1.150203 29.269197 -8.113207 -19.725955 4.925235 0.000000 0.000000 0.000000 0.617636 -2.209721 33.067159 10.184975 -2.030327 -21.137937 -1.887973 -1.519000 25.895548 -2.819030 3.299373 -22.380889 0.000000 0.000000 0.000000 -36.675213 -6.396322 1.564565 -54.413087 -5.502774 -6.224178 -5.575771 -63.306234 7.937378 0.000000 0.000000 0.000000 23.528296 10.273108 5.280643 61.305972 -0.087102 -8.611188 -16.051405 51.935886 -3.926047 0.000000 0.000000 0.000000 
0.007741 0.891529 0.190950 -1.615868 5.469801 4.115010 4.891973 -1.845714 -27.565847 -10.771072 3.356501 59.813354 7.531144 17.420526 17.950787 0.000000 0.000000 0.000000 3.362120 3.696337 -32.682503 5.713272 -1.795113 34.326116 -8.495842 -20.758818 1.279075 0.000000 0.000000 0.000000 0.460229 -2.379219 35.653012 8.967787 -1.699408 -21.165327 -0.495771 -0.547308 25.442822 -2.489924 3.189414 -20.860813 0.000000 0.000000 0.000000 -37.809129 -7.846653 2.157134 -54.563333 -5.238956 -6.145739 -5.054139 -61.682753 7.129572 0.000000 0.000000 0.000000 23.697521 11.516152 6.279960 60.299905 2.131757 -7.376306 -17.416338 50.526143 -4.360315 0.000000 0.000000 0.000000 
0.007800 0.884700 0.217909 -1.507233 4.398001 3.779820 4.660873 -2.431248 -35.288051 -9.642287 3.290483 66.540621 10.359430 21.144014 21.140153 0.000000 0.000000 0.000000 3.637640 3.934284 -33.209037 5.751838 -1.876773 39.093588 -8.457927 -20.778391 -0.516012 0.000000 0.000000 0.000000 -1.106870 -1.895223 38.424929 9.651644 -1.800677 -22.177898 0.415278 2.400084 25.412306 -1.369590 2.878647 -21.121439 0.000000 0.000000 0.000000 -38.190271 -8.454362 1.327604 -54.904340 -2.497703 -6.988228 -9.177097 -60.208387 8.785584 0.000000 0.000000 0.000000 24.786001 11.684217 7.248881 58.568065 5.545048 -5.720014 -19.243981 48.051597 -4.593257 0.000000 0.000000 0.000000 
0.008775 0.879963 0.245402 -1.408783 3.592043 3.638821 4.152995 -2.972753 -40.971307 -7.961416 2.284309 63.619091 15.686839 28.014836 19.068006 0.000000 0.000000 0.000000 4.240695 4.168515 -33.112889 5.104998 -1.539808 42.594105 -8.481122 -20.894892 -1.751278 0.000000 0.000000 0.000000 -2.324245 -1.436125 40.531607 8.986273 -1.660832 -21.969015 1.919012 4.111366 24.536517 -1.703356 3.237471 -19.883017 0.000000 0.000000 0.000000 -39.192837 -8.471260 0.542263 -55.437095 -0.169916 -7.780040 -12.251846 -58.451787 9.911945 0.000000 0.000000 0.000000 26.287400 12.479621 8.299403 57.507445 7.999838 -4.528679 -21.462179 47.157530 -5.324625 0.000000 0.000000 0.000000 
0.010208 0.875743 0.273280 -1.194847 2.659869 3.331048 3.105720 -3.615650 -45.511255 -6.456926 1.433186 55.707169 20.704057 33.753271 20.908697 0.000000 0.000000 0.000000 4.495873 4.278391 -32.708189 4.777675 -1.265945 45.848926 -8.463132 -20.854237 -2.399262 0.000000 0.000000 0.000000 -3.915471 -0.727624 42.562589 9.163735 -1.635903 -22.829440 2.863371 6.312076 24.994473 -1.066594 3.169523 -20.784162 0.000000 0.000000 0.000000 -39.073020 -8.665531 -0.242172 -56.187342 2.932642 -9.057254 -15.771208 -57.149038 11.268128 0.000000 0.000000 0.000000 26.628121 12.586950 9.008060 57.138300 10.573693 -3.449386 -23.023942 46.210835 -5.601554 0.000000 0.000000 0.000000 
0.011967 0.871078 0.301512 -1.262442 1.578694 2.998197 2.513959 -3.848405 -47.759243 -5.594217 1.119052 50.353888 12.962023 25.279521 8.565590 0.000000 0.000000 0.000000 4.969219 4.342151 -31.516176 4.551000 -0.925204 47.936386 -8.410422 -20.738291 -3.706636 0.000000 0.000000 0.000000 -4.339160 -0.391521 43.900063 7.744790 -1.354444 -22.308499 3.849723 7.629701 23.709879 -0.668195 2.957084 -19.538311 0.000000 0.000000 0.000000 -39.609507 -8.046988 -1.287546 -55.194746 6.885365 -10.347789 -21.558064 -56.786810 14.115294 0.000000 0.000000 0.000000 27.641720 12.532170 9.330287 55.990771 11.493179 -2.975636 -21.960183 46.208605 -5.225582 0.000000 0.000000 0.000000 
